<svg preserveAspectRatio="none" width="100%" height="100%" overflow="visible" style="display: block;" viewBox="0 0 18 17" fill="none" xmlns="http://www.w3.org/2000/svg">
<path id="Vector" d="M18 7.23926C18 3.24577 13.9629 0 9 0C4.03714 0 0 3.24577 0 7.23926C0 10.8164 3.19714 13.8158 7.52571 14.3766C7.81714 14.436 8.22 14.572 8.31429 14.8184C8.40857 15.0478 8.37429 15.3962 8.34 15.6256C8.34 15.6256 8.23714 16.2543 8.21143 16.3903C8.16857 16.6112 8.03143 17.274 8.99143 16.8746C9.95143 16.4753 14.1686 13.8498 16.0629 11.7001C17.3657 10.2811 17.9914 8.84515 17.9914 7.24775L18 7.23926ZM5.82857 9.37195C5.82857 9.46541 5.75143 9.54189 5.65714 9.54189H3.12857C3.03429 9.54189 2.95714 9.46541 2.95714 9.37195V5.48042C2.95714 5.38696 3.03429 5.31049 3.12857 5.31049H3.76286C3.85714 5.31049 3.93429 5.38696 3.93429 5.48042V8.57325H5.64857C5.74286 8.57325 5.82 8.64972 5.82 8.74319V9.37195H5.82857ZM7.34571 9.37195C7.34571 9.46541 7.26857 9.54189 7.17429 9.54189H6.54C6.44571 9.54189 6.36857 9.46541 6.36857 9.37195V5.48042C6.36857 5.38696 6.44571 5.31049 6.54 5.31049H7.17429C7.26857 5.31049 7.34571 5.38696 7.34571 5.48042V9.37195ZM11.6914 9.37195C11.6914 9.46541 11.6143 9.54189 11.52 9.54189H10.8857C10.8857 9.54189 10.8514 9.54189 10.8429 9.54189C10.8429 9.54189 10.8429 9.54189 10.8343 9.54189C10.8343 9.54189 10.8343 9.54189 10.8257 9.54189C10.8086 9.53339 10.7914 9.5164 10.7829 9.4994L8.98286 7.09481V9.40594C8.98286 9.4994 8.90571 9.57587 8.81143 9.57587H8.17714C8.08286 9.57587 8.00571 9.4994 8.00571 9.40594V5.51441C8.00571 5.42095 8.08286 5.34448 8.17714 5.34448H8.81143C8.81143 5.34448 8.81143 5.34448 8.82 5.34448C8.82 5.34448 8.82 5.34448 8.82857 5.34448C8.82857 5.34448 8.82857 5.34448 8.83714 5.34448C8.83714 5.34448 8.83714 5.34448 8.84571 5.34448C8.84571 5.34448 8.84571 5.34448 8.85429 5.34448C8.85429 5.34448 8.85429 5.34448 8.86286 5.34448C8.86286 5.34448 8.86286 5.34448 8.87143 5.34448C8.87143 5.34448 8.87143 5.34448 8.88 5.34448C8.88 5.34448 8.88 5.34448 8.88857 5.35297C8.88857 5.35297 8.89714 5.36147 8.90571 5.36997L10.7057 7.77455V5.46343C10.7057 5.36997 10.7829 5.29349 10.8771 5.29349H11.5114C11.6057 5.29349 11.6829 5.36997 11.6829 5.46343V9.35496L11.6914 9.37195ZM15.1714 6.10919C15.1714 6.20265 15.0943 6.27912 15 6.27912H13.2857V6.93337H15C15.0943 6.93337 15.1714 7.00984 15.1714 7.10331V7.73207C15.1714 7.82554 15.0943 7.90201 15 7.90201H13.2857V8.55626H15C15.0943 8.55626 15.1714 8.63273 15.1714 8.7262V9.35496C15.1714 9.44842 15.0943 9.52489 15 9.52489H12.4714C12.3771 9.52489 12.3 9.44842 12.3 9.35496V5.46343C12.3 5.36147 12.3771 5.285 12.4714 5.285H15C15.0943 5.285 15.1714 5.36147 15.1714 5.45493V6.0837V6.10919Z" fill="var(--fill-0, white)"/>
</svg>
