<svg preserveAspectRatio="none" width="100%" height="100%" overflow="visible" style="display: block;" viewBox="0 0 18 18" fill="none" xmlns="http://www.w3.org/2000/svg">
<g id="icon-wrap">
<path id="Vector" d="M12.813 4.24185C12.813 3.98946 12.9134 3.74741 13.0922 3.56894C13.271 3.39048 13.5134 3.29022 13.7662 3.29022C14.0191 3.29022 14.2615 3.39048 14.4403 3.56894C14.6191 3.74741 14.7195 3.98946 14.7195 4.24185C14.7195 4.49424 14.6191 4.7363 14.4403 4.91476C14.2615 5.09323 14.0191 5.19349 13.7662 5.19349C13.5134 5.19349 13.271 5.09323 13.0922 4.91476C12.9134 4.7363 12.813 4.49424 12.813 4.24185Z" fill="var(--fill-0, #3D676F)"/>
<path id="Vector_2" fill-rule="evenodd" clip-rule="evenodd" d="M8.99997 4.47973C7.79909 4.47973 6.64739 4.95598 5.79824 5.80369C4.94909 6.65141 4.47205 7.80116 4.47205 9.00002C4.47205 10.1989 4.94909 11.3486 5.79824 12.1963C6.64739 13.0441 7.79909 13.5203 8.99997 13.5203C10.2008 13.5203 11.3525 13.0441 12.2017 12.1963C13.0508 11.3486 13.5279 10.1989 13.5279 9.00002C13.5279 7.80116 13.0508 6.65141 12.2017 5.80369C11.3525 4.95598 10.2008 4.47973 8.99997 4.47973ZM5.90192 9.00002C5.90192 8.17975 6.22832 7.39308 6.80931 6.81306C7.39031 6.23304 8.17831 5.90719 8.99997 5.90719C9.82162 5.90719 10.6096 6.23304 11.1906 6.81306C11.7716 7.39308 12.098 8.17975 12.098 9.00002C12.098 9.82028 11.7716 10.607 11.1906 11.187C10.6096 11.767 9.82162 12.0928 8.99997 12.0928C8.17831 12.0928 7.39031 11.767 6.80931 11.187C6.22832 10.607 5.90192 9.82028 5.90192 9.00002Z" fill="var(--fill-0, #3D676F)"/>
<path id="Vector_3" fill-rule="evenodd" clip-rule="evenodd" d="M14.0122 0.276624C10.6809 -0.092208 7.31906 -0.092208 3.98783 0.276624C2.0699 0.490743 0.520872 1.99909 0.295906 3.9233C-0.0986354 7.2965 -0.0986354 10.7041 0.295906 14.0773C0.520872 16.0015 2.06894 17.5098 3.98783 17.724C7.31911 18.092 10.6809 18.092 14.0122 17.724C15.9301 17.5098 17.4791 16.0015 17.7041 14.0773C18.0986 10.7041 18.0986 7.2965 17.7041 3.9233C17.4791 1.99909 15.9311 0.490743 14.0122 0.276624ZM4.14607 1.69457C7.37214 1.33742 10.6279 1.33742 13.8539 1.69457C15.1217 1.83731 16.137 2.83558 16.2847 4.08984C16.6671 7.35235 16.6671 10.6482 16.2847 13.9107C16.2083 14.5246 15.9268 15.0948 15.4857 15.5292C15.0447 15.9637 14.4698 16.237 13.8539 16.3051C10.6279 16.6622 7.37214 16.6622 4.14607 16.3051C3.53022 16.237 2.95532 15.9637 2.51426 15.5292C2.07319 15.0948 1.79171 14.5246 1.71529 13.9107C1.3329 10.6482 1.3329 7.35235 1.71529 4.08984C1.79171 3.47599 2.07319 2.90579 2.51426 2.47134C2.95532 2.03689 3.53022 1.76261 4.14607 1.69457Z" fill="var(--fill-0, #3D676F)"/>
</g>
</svg>
